<svg xmlns="http://www.w3.org/2000/svg" xmlns:xlink="http://www.w3.org/1999/xlink" width="500" zoomAndPan="magnify" viewBox="0 0 375 374.999991" height="500" preserveAspectRatio="xMidYMid meet" version="1.0"><defs><clipPath id="bfa8e04640"><path d="M 83 75 L 292.214844 75 L 292.214844 281.835938 L 83 281.835938 Z M 83 75 " clip-rule="nonzero"/></clipPath><clipPath id="18a802260a"><path d="M 178 270 L 191 270 L 191 281.835938 L 178 281.835938 Z M 178 270 " clip-rule="nonzero"/></clipPath><clipPath id="4f44c73064"><path d="M 154.890625 64.609375 L 220.140625 64.609375 L 220.140625 111.859375 L 154.890625 111.859375 Z M 154.890625 64.609375 " clip-rule="nonzero"/></clipPath><clipPath id="9b64e1e607"><path d="M 182 64.609375 L 220.140625 64.609375 L 220.140625 111.859375 L 182 111.859375 Z M 182 64.609375 " clip-rule="nonzero"/></clipPath></defs><g clip-path="url(#bfa8e04640)"><path fill="#1ba553" d="M 187.519531 75.023438 C 129.425781 75.21875 83 122.359375 83.757812 180.328125 C 83.824219 186.164062 84.386719 191.953125 85.4375 197.691406 C 86.484375 203.433594 88.011719 209.042969 90.015625 214.527344 C 92.015625 220.011719 94.464844 225.289062 97.359375 230.355469 C 100.257812 235.425781 103.558594 240.21875 107.265625 244.730469 C 107.851562 245.445312 108.320312 246.230469 108.667969 247.085938 C 109.015625 247.941406 109.230469 248.828125 109.308594 249.746094 C 109.390625 250.667969 109.335938 251.578125 109.140625 252.480469 C 108.945312 253.382812 108.625 254.238281 108.171875 255.042969 L 99.203125 271.082031 C 96.714844 275.53125 100.765625 280.789062 105.710938 279.53125 L 136.09375 271.8125 C 137.152344 271.542969 138.226562 271.464844 139.3125 271.578125 C 140.402344 271.6875 141.4375 271.984375 142.417969 272.460938 C 148.554688 275.4375 154.925781 277.785156 161.527344 279.503906 C 161.933594 279.609375 162.347656 279.671875 162.769531 279.699219 C 163.191406 279.722656 163.609375 279.707031 164.027344 279.648438 C 164.445312 279.589844 164.851562 279.492188 165.25 279.355469 C 165.648438 279.214844 166.027344 279.039062 166.390625 278.828125 C 166.753906 278.613281 167.09375 278.367188 167.410156 278.089844 C 167.722656 277.808594 168.007812 277.503906 168.261719 277.167969 C 168.515625 276.832031 168.734375 276.472656 168.917969 276.097656 C 169.101562 275.71875 169.246094 275.324219 169.351562 274.917969 C 169.457031 274.511719 169.523438 274.097656 169.546875 273.679688 C 169.574219 273.257812 169.554688 272.839844 169.5 272.421875 C 169.441406 272.007812 169.34375 271.601562 169.203125 271.203125 C 169.066406 270.804688 168.890625 270.425781 168.675781 270.0625 C 168.464844 269.699219 168.214844 269.363281 167.9375 269.046875 C 167.65625 268.734375 167.347656 268.449219 167.011719 268.195312 C 166.675781 267.941406 166.320312 267.726562 165.9375 267.542969 C 165.558594 267.359375 165.167969 267.214844 164.757812 267.109375 C 163.160156 266.691406 161.578125 266.234375 160.015625 265.734375 C 157.742188 265.003906 155.503906 264.191406 153.292969 263.285156 C 151.082031 262.382812 148.914062 261.394531 146.78125 260.320312 C 144.648438 259.246094 142.5625 258.09375 140.523438 256.855469 C 138.480469 255.617188 136.492188 254.304688 134.554688 252.910156 C 132.617188 251.519531 130.738281 250.054688 128.914062 248.515625 C 127.09375 246.972656 125.332031 245.367188 123.636719 243.6875 C 121.941406 242.011719 120.3125 240.269531 118.753906 238.46875 C 117.195312 236.664062 115.707031 234.800781 114.296875 232.878906 C 112.882812 230.957031 111.546875 228.984375 110.289062 226.960938 C 109.03125 224.933594 107.855469 222.863281 106.757812 220.746094 C 105.664062 218.628906 104.652344 216.472656 103.726562 214.277344 C 102.800781 212.078125 101.964844 209.851562 101.210938 207.589844 C 100.460938 205.328125 99.800781 203.039062 99.230469 200.726562 C 98.660156 198.410156 98.179688 196.078125 97.792969 193.730469 C 97.402344 191.378906 97.109375 189.015625 96.90625 186.640625 C 96.703125 184.265625 96.59375 181.886719 96.582031 179.503906 C 96.277344 129.167969 136.664062 88.25 187.101562 87.832031 C 237.683594 87.414062 278.855469 128.046875 279.171875 178.355469 C 279.457031 223.296875 246.421875 261.238281 203.410156 268.71875 C 202.667969 268.847656 201.964844 269.101562 201.3125 269.480469 C 200.65625 269.855469 200.085938 270.332031 199.601562 270.910156 C 199.113281 271.488281 198.742188 272.132812 198.484375 272.84375 C 198.226562 273.550781 198.097656 274.285156 198.097656 275.039062 C 198.097656 275.503906 198.148438 275.964844 198.246094 276.421875 C 198.347656 276.878906 198.496094 277.316406 198.695312 277.742188 C 198.890625 278.164062 199.132812 278.5625 199.414062 278.933594 C 199.699219 279.304688 200.019531 279.640625 200.375 279.941406 C 200.734375 280.242188 201.117188 280.503906 201.53125 280.71875 C 201.945312 280.9375 202.378906 281.105469 202.832031 281.230469 C 203.28125 281.355469 203.742188 281.425781 204.207031 281.449219 C 204.675781 281.472656 205.140625 281.445312 205.601562 281.367188 C 254.503906 273.027344 291.84375 230.714844 292.003906 179.273438 C 292.183594 121.609375 245.300781 74.832031 187.519531 75.023438 Z M 187.519531 75.023438 " fill-opacity="1" fill-rule="nonzero"/></g><path fill="#1ba553" d="M 171.558594 134.644531 L 171.601562 134.730469 L 177.046875 145.507812 C 177.339844 146.085938 177.582031 146.6875 177.78125 147.304688 C 177.976562 147.925781 178.121094 148.554688 178.214844 149.195312 C 178.308594 149.839844 178.351562 150.484375 178.339844 151.132812 C 178.328125 151.785156 178.265625 152.425781 178.152344 153.066406 C 178.039062 153.707031 177.871094 154.332031 177.65625 154.945312 C 177.441406 155.554688 177.175781 156.148438 176.867188 156.71875 C 176.554688 157.285156 176.199219 157.828125 175.800781 158.339844 C 175.402344 158.855469 174.964844 159.332031 174.488281 159.773438 C 174.015625 160.210938 173.578125 160.6875 173.179688 161.195312 C 172.785156 161.703125 172.429688 162.242188 172.117188 162.808594 C 171.808594 163.375 171.542969 163.960938 171.328125 164.566406 C 171.109375 165.175781 170.941406 165.796875 170.828125 166.433594 C 170.710938 167.066406 170.644531 167.707031 170.632812 168.351562 C 170.617188 168.996094 170.65625 169.640625 170.746094 170.277344 C 170.835938 170.917969 170.976562 171.546875 171.167969 172.164062 C 171.359375 172.777344 171.597656 173.375 171.886719 173.953125 C 175.15625 180.503906 180.816406 189.535156 189.460938 196.050781 C 190.429688 196.785156 191.484375 197.359375 192.625 197.777344 C 193.769531 198.191406 194.945312 198.433594 196.160156 198.496094 C 197.375 198.558594 198.574219 198.445312 199.753906 198.148438 C 200.933594 197.851562 202.042969 197.390625 203.082031 196.761719 L 206.589844 194.632812 C 207.375 194.152344 208.207031 193.769531 209.078125 193.480469 C 209.953125 193.195312 210.847656 193.007812 211.765625 192.921875 C 212.683594 192.839844 213.597656 192.859375 214.507812 192.984375 C 215.421875 193.105469 216.308594 193.332031 217.167969 193.65625 L 231.105469 198.949219 C 231.847656 199.230469 232.554688 199.578125 233.230469 200 C 233.902344 200.421875 234.527344 200.902344 235.105469 201.445312 C 235.683594 201.992188 236.203125 202.585938 236.664062 203.230469 C 237.121094 203.875 237.515625 204.5625 237.839844 205.285156 C 238.167969 206.007812 238.417969 206.753906 238.59375 207.527344 C 238.773438 208.300781 238.875 209.082031 238.898438 209.875 C 238.921875 210.664062 238.867188 211.453125 238.734375 212.234375 C 238.601562 213.015625 238.394531 213.777344 238.113281 214.515625 C 237.949219 214.941406 237.765625 215.355469 237.554688 215.761719 L 233.691406 223.230469 C 233.378906 223.835938 233.019531 224.410156 232.609375 224.953125 C 232.199219 225.496094 231.746094 226 231.25 226.46875 C 230.753906 226.9375 230.226562 227.359375 229.65625 227.734375 C 229.089844 228.113281 228.496094 228.441406 227.875 228.71875 C 227.25 228.996094 226.609375 229.21875 225.949219 229.386719 C 225.289062 229.554688 224.621094 229.667969 223.941406 229.726562 C 223.261719 229.78125 222.582031 229.78125 221.90625 229.722656 C 221.226562 229.664062 220.554688 229.546875 219.898438 229.378906 C 198.003906 223.726562 145.832031 204.078125 141.628906 144.667969 C 141.542969 143.488281 141.632812 142.320312 141.890625 141.167969 C 142.152344 140.015625 142.570312 138.921875 143.152344 137.890625 C 143.734375 136.863281 144.449219 135.9375 145.304688 135.117188 C 146.15625 134.296875 147.109375 133.617188 148.164062 133.078125 L 155.273438 129.433594 C 155.980469 129.070312 156.714844 128.777344 157.476562 128.5625 C 158.242188 128.34375 159.019531 128.203125 159.808594 128.136719 C 160.601562 128.070312 161.390625 128.082031 162.179688 128.175781 C 162.96875 128.265625 163.742188 128.429688 164.5 128.671875 C 165.253906 128.914062 165.980469 129.226562 166.675781 129.613281 C 167.367188 129.996094 168.019531 130.445312 168.625 130.957031 C 169.230469 131.472656 169.78125 132.039062 170.273438 132.660156 C 170.769531 133.277344 171.195312 133.941406 171.558594 134.644531 Z M 171.558594 134.644531 " fill-opacity="1" fill-rule="nonzero"/><g clip-path="url(#18a802260a)"><path fill="#1ba553" d="M 190.191406 275.941406 C 190.191406 276.328125 190.152344 276.710938 190.078125 277.089844 C 190.003906 277.46875 189.890625 277.835938 189.742188 278.191406 C 189.59375 278.550781 189.414062 278.890625 189.199219 279.210938 C 188.980469 279.53125 188.738281 279.828125 188.464844 280.101562 C 188.191406 280.375 187.890625 280.617188 187.570312 280.832031 C 187.25 281.046875 186.910156 281.230469 186.550781 281.378906 C 186.191406 281.527344 185.824219 281.636719 185.445312 281.710938 C 185.066406 281.789062 184.679688 281.824219 184.292969 281.824219 C 183.90625 281.824219 183.523438 281.789062 183.144531 281.710938 C 182.765625 281.636719 182.394531 281.527344 182.039062 281.378906 C 181.679688 281.230469 181.339844 281.046875 181.019531 280.832031 C 180.695312 280.617188 180.398438 280.375 180.125 280.101562 C 179.851562 279.828125 179.605469 279.53125 179.390625 279.210938 C 179.175781 278.890625 178.996094 278.550781 178.847656 278.191406 C 178.699219 277.835938 178.585938 277.46875 178.511719 277.089844 C 178.433594 276.710938 178.398438 276.328125 178.398438 275.941406 C 178.398438 275.554688 178.433594 275.171875 178.511719 274.792969 C 178.585938 274.414062 178.699219 274.046875 178.847656 273.6875 C 178.996094 273.332031 179.175781 272.992188 179.390625 272.671875 C 179.605469 272.347656 179.851562 272.050781 180.125 271.777344 C 180.398438 271.503906 180.695312 271.261719 181.019531 271.046875 C 181.339844 270.832031 181.679688 270.652344 182.039062 270.503906 C 182.394531 270.355469 182.765625 270.242188 183.144531 270.167969 C 183.523438 270.09375 183.90625 270.054688 184.292969 270.054688 C 184.679688 270.054688 185.066406 270.09375 185.445312 270.167969 C 185.824219 270.242188 186.191406 270.355469 186.550781 270.503906 C 186.910156 270.652344 187.25 270.832031 187.570312 271.046875 C 187.890625 271.261719 188.191406 271.503906 188.464844 271.777344 C 188.738281 272.050781 188.980469 272.347656 189.199219 272.671875 C 189.414062 272.992188 189.59375 273.332031 189.742188 273.6875 C 189.890625 274.046875 190.003906 274.414062 190.078125 274.792969 C 190.152344 275.171875 190.191406 275.554688 190.191406 275.941406 Z M 190.191406 275.941406 " fill-opacity="1" fill-rule="nonzero"/></g><g clip-path="url(#4f44c73064)"><path fill="#006600" d="M 220.121094 104.589844 C 220.121094 108.605469 216.878906 111.859375 212.875 111.859375 L 162.152344 111.859375 C 158.152344 111.859375 154.90625 108.605469 154.90625 104.589844 L 154.90625 71.878906 C 154.90625 67.863281 158.152344 64.609375 162.152344 64.609375 L 212.875 64.609375 C 216.878906 64.609375 220.121094 67.863281 220.121094 71.878906 Z M 220.121094 104.589844 " fill-opacity="1" fill-rule="nonzero"/></g><g clip-path="url(#9b64e1e607)"><path fill="#d52b1e" d="M 212.875 64.609375 L 182.078125 64.609375 L 182.078125 111.859375 L 212.875 111.859375 C 216.878906 111.859375 220.121094 108.605469 220.121094 104.589844 L 220.121094 71.878906 C 220.121094 67.863281 216.878906 64.609375 212.875 64.609375 Z M 212.875 64.609375 " fill-opacity="1" fill-rule="nonzero"/></g><path fill="#ffcc4d" d="M 182.078125 73.695312 C 174.074219 73.695312 167.585938 80.207031 167.585938 88.234375 C 167.585938 96.261719 174.074219 102.773438 182.078125 102.773438 C 190.082031 102.773438 196.570312 96.261719 196.570312 88.234375 C 196.570312 80.207031 190.082031 73.695312 182.078125 73.695312 Z M 189.316406 84.488281 L 193.097656 81.957031 C 193.988281 83.523438 194.554688 85.296875 194.707031 87.191406 Z M 183.890625 99.136719 L 188.585938 99.136719 C 187.175781 99.988281 185.589844 100.566406 183.890625 100.808594 Z M 169.453125 87.191406 C 169.601562 85.335938 170.144531 83.589844 171.003906 82.042969 L 173.90625 84.957031 Z M 169.453125 89.277344 L 176.238281 92.679688 L 177.050781 91.054688 L 171.425781 88.234375 L 175.257812 86.3125 L 177.816406 88.878906 L 179.097656 87.59375 L 176.964844 85.457031 L 177.050781 85.414062 L 176.238281 83.789062 L 175.617188 84.101562 L 173.851562 82.328125 L 176.496094 82.773438 L 176.792969 80.980469 L 172.238281 80.21875 C 174.203125 77.796875 177.039062 76.125 180.269531 75.660156 L 180.269531 97.320312 L 174.652344 97.320312 L 178.957031 94.441406 L 177.953125 92.929688 L 172.519531 96.566406 L 172.542969 96.601562 C 170.804688 94.609375 169.679688 92.074219 169.453125 89.277344 Z M 180.269531 100.808594 C 178.570312 100.566406 176.984375 99.988281 175.574219 99.136719 L 180.269531 99.136719 Z M 191.65625 96.558594 L 186.34375 91.226562 L 185.0625 92.511719 L 185.917969 93.367188 L 185.199219 94.445312 L 189.503906 97.320312 L 183.890625 97.320312 L 183.890625 75.660156 C 186.285156 76.003906 188.464844 77.003906 190.230469 78.496094 L 185.417969 80.105469 L 185.988281 81.828125 L 191.421875 80.011719 L 191.238281 79.453125 C 191.539062 79.769531 191.820312 80.101562 192.089844 80.449219 L 187.011719 83.84375 L 187.515625 84.601562 L 187.109375 85.414062 L 192.734375 88.234375 L 187.109375 91.058594 L 187.917969 92.683594 L 194.707031 89.277344 C 194.484375 92.054688 193.371094 94.570312 191.65625 96.558594 Z M 191.65625 96.558594 " fill-opacity="1" fill-rule="nonzero"/><path fill="#d52b1e" d="M 174.832031 79.148438 L 174.832031 91.871094 C 174.832031 95.882812 178.078125 99.136719 182.078125 99.136719 C 186.082031 99.136719 189.324219 95.882812 189.324219 91.871094 L 189.324219 79.148438 Z M 174.832031 79.148438 " fill-opacity="1" fill-rule="nonzero"/><path fill="#ffffff" d="M 176.644531 80.964844 L 176.644531 91.871094 C 176.644531 94.878906 179.078125 97.320312 182.078125 97.320312 C 185.082031 97.320312 187.515625 94.878906 187.515625 91.871094 L 187.515625 80.964844 Z M 176.644531 80.964844 " fill-opacity="1" fill-rule="nonzero"/><path fill="#829acd" d="M 178.457031 86.417969 L 185.703125 86.417969 L 185.703125 90.050781 L 178.457031 90.050781 Z M 178.457031 86.417969 " fill-opacity="1" fill-rule="nonzero"/><path fill="#829acd" d="M 180.269531 84.601562 L 183.890625 84.601562 L 183.890625 91.871094 L 180.269531 91.871094 Z M 180.269531 84.601562 " fill-opacity="1" fill-rule="nonzero"/><path fill="#003399" d="M 176.644531 86.417969 L 178.457031 86.417969 L 178.457031 90.050781 L 176.644531 90.050781 Z M 180.269531 86.417969 L 183.890625 86.417969 L 183.890625 90.050781 L 180.269531 90.050781 Z M 185.703125 86.417969 L 187.515625 86.417969 L 187.515625 90.050781 L 185.703125 90.050781 Z M 180.269531 91.871094 L 183.890625 91.871094 L 183.890625 95.503906 L 180.269531 95.503906 Z M 180.269531 80.964844 L 183.890625 80.964844 L 183.890625 84.601562 L 180.269531 84.601562 Z M 180.269531 80.964844 " fill-opacity="1" fill-rule="nonzero"/></svg>