<svg xmlns="http://www.w3.org/2000/svg" xmlns:xlink="http://www.w3.org/1999/xlink" width="500" zoomAndPan="magnify" viewBox="0 0 375 374.999991" height="500" preserveAspectRatio="xMidYMid meet" version="1.0"><defs><clipPath id="b2817613d9"><path d="M 83 68.101562 L 292.214844 68.101562 L 292.214844 275 L 83 275 Z M 83 68.101562 " clip-rule="nonzero"/></clipPath><clipPath id="ffaae84c79"><path d="M 178 263 L 191 263 L 191 275.101562 L 178 275.101562 Z M 178 263 " clip-rule="nonzero"/></clipPath><clipPath id="bac7c04b07"><path d="M 153.421875 53.960938 L 221.671875 53.960938 L 221.671875 103.460938 L 153.421875 103.460938 Z M 153.421875 53.960938 " clip-rule="nonzero"/></clipPath></defs><g clip-path="url(#b2817613d9)"><path fill="#1ba553" d="M 187.519531 68.292969 C 129.425781 68.488281 83 115.625 83.757812 173.59375 C 83.824219 179.429688 84.386719 185.21875 85.4375 190.960938 C 86.484375 196.699219 88.011719 202.3125 90.015625 207.796875 C 92.015625 213.277344 94.464844 218.554688 97.359375 223.625 C 100.257812 228.695312 103.558594 233.484375 107.265625 237.996094 C 107.851562 238.710938 108.320312 239.496094 108.667969 240.351562 C 109.015625 241.207031 109.230469 242.09375 109.308594 243.015625 C 109.390625 243.933594 109.335938 244.84375 109.140625 245.746094 C 108.945312 246.648438 108.625 247.503906 108.171875 248.308594 L 99.203125 264.351562 C 96.714844 268.800781 100.765625 274.058594 105.710938 272.800781 L 136.09375 265.082031 C 137.152344 264.8125 138.226562 264.734375 139.3125 264.84375 C 140.402344 264.957031 141.4375 265.25 142.417969 265.730469 C 148.554688 268.707031 154.925781 271.050781 161.527344 272.769531 C 161.933594 272.875 162.347656 272.941406 162.769531 272.964844 C 163.191406 272.988281 163.609375 272.972656 164.027344 272.914062 C 164.445312 272.859375 164.851562 272.757812 165.25 272.621094 C 165.648438 272.484375 166.027344 272.308594 166.390625 272.09375 C 166.753906 271.882812 167.09375 271.636719 167.410156 271.355469 C 167.722656 271.078125 168.007812 270.769531 168.261719 270.433594 C 168.515625 270.097656 168.734375 269.742188 168.917969 269.363281 C 169.101562 268.984375 169.246094 268.59375 169.351562 268.183594 C 169.457031 267.777344 169.523438 267.363281 169.546875 266.945312 C 169.574219 266.527344 169.554688 266.109375 169.5 265.691406 C 169.441406 265.273438 169.34375 264.867188 169.203125 264.46875 C 169.066406 264.074219 168.890625 263.695312 168.675781 263.332031 C 168.464844 262.96875 168.214844 262.628906 167.9375 262.316406 C 167.65625 262 167.347656 261.71875 167.011719 261.464844 C 166.675781 261.210938 166.320312 260.992188 165.9375 260.808594 C 165.558594 260.625 165.167969 260.480469 164.757812 260.375 C 163.160156 259.960938 161.578125 259.503906 160.015625 259 C 157.742188 258.273438 155.503906 257.457031 153.292969 256.554688 C 151.082031 255.648438 148.914062 254.660156 146.78125 253.585938 C 144.648438 252.515625 142.5625 251.359375 140.523438 250.121094 C 138.480469 248.886719 136.492188 247.570312 134.554688 246.179688 C 132.617188 244.785156 130.738281 243.320312 128.914062 241.78125 C 127.09375 240.242188 125.332031 238.632812 123.636719 236.957031 C 121.941406 235.28125 120.3125 233.539062 118.753906 231.734375 C 117.195312 229.929688 115.707031 228.066406 114.296875 226.148438 C 112.882812 224.226562 111.546875 222.253906 110.289062 220.226562 C 109.03125 218.203125 107.855469 216.132812 106.757812 214.015625 C 105.664062 211.898438 104.652344 209.738281 103.726562 207.542969 C 102.800781 205.347656 101.964844 203.117188 101.210938 200.855469 C 100.460938 198.59375 99.800781 196.308594 99.230469 193.992188 C 98.660156 191.679688 98.179688 189.347656 97.792969 186.996094 C 97.402344 184.644531 97.109375 182.28125 96.90625 179.90625 C 96.703125 177.535156 96.59375 175.15625 96.582031 172.773438 C 96.277344 122.4375 136.664062 81.515625 187.101562 81.101562 C 237.683594 80.683594 278.855469 121.316406 279.171875 171.625 C 279.457031 216.5625 246.421875 254.503906 203.410156 261.984375 C 202.667969 262.117188 201.964844 262.371094 201.3125 262.746094 C 200.65625 263.125 200.085938 263.601562 199.601562 264.179688 C 199.113281 264.757812 198.742188 265.402344 198.484375 266.109375 C 198.226562 266.820312 198.097656 267.550781 198.097656 268.304688 C 198.097656 268.773438 198.148438 269.234375 198.246094 269.6875 C 198.347656 270.144531 198.496094 270.585938 198.695312 271.007812 C 198.890625 271.433594 199.132812 271.828125 199.414062 272.199219 C 199.699219 272.570312 200.019531 272.90625 200.375 273.210938 C 200.734375 273.511719 201.117188 273.769531 201.53125 273.988281 C 201.945312 274.203125 202.378906 274.375 202.832031 274.496094 C 203.28125 274.621094 203.742188 274.695312 204.207031 274.71875 C 204.675781 274.742188 205.140625 274.714844 205.601562 274.636719 C 254.503906 266.296875 291.84375 223.980469 292.003906 172.542969 C 292.183594 114.878906 245.300781 68.097656 187.519531 68.292969 Z M 187.519531 68.292969 " fill-opacity="1" fill-rule="nonzero"/></g><path fill="#1ba553" d="M 171.558594 127.914062 L 171.601562 127.996094 L 177.046875 138.773438 C 177.339844 139.355469 177.582031 139.953125 177.78125 140.574219 C 177.976562 141.191406 178.121094 141.820312 178.214844 142.464844 C 178.308594 143.105469 178.351562 143.753906 178.339844 144.402344 C 178.328125 145.050781 178.265625 145.695312 178.152344 146.332031 C 178.039062 146.972656 177.871094 147.597656 177.65625 148.210938 C 177.441406 148.824219 177.175781 149.414062 176.867188 149.984375 C 176.554688 150.554688 176.199219 151.09375 175.800781 151.609375 C 175.402344 152.121094 174.964844 152.597656 174.488281 153.042969 C 174.015625 153.480469 173.578125 153.953125 173.179688 154.460938 C 172.785156 154.972656 172.429688 155.507812 172.117188 156.074219 C 171.808594 156.640625 171.542969 157.226562 171.328125 157.835938 C 171.109375 158.445312 170.941406 159.066406 170.828125 159.699219 C 170.710938 160.335938 170.644531 160.972656 170.632812 161.621094 C 170.617188 162.265625 170.65625 162.90625 170.746094 163.546875 C 170.835938 164.183594 170.976562 164.8125 171.167969 165.429688 C 171.359375 166.046875 171.597656 166.644531 171.886719 167.222656 C 175.15625 173.773438 180.816406 182.800781 189.460938 189.316406 C 190.429688 190.050781 191.484375 190.625 192.625 191.042969 C 193.769531 191.460938 194.945312 191.699219 196.160156 191.765625 C 197.375 191.828125 198.574219 191.710938 199.753906 191.414062 C 200.933594 191.121094 202.042969 190.65625 203.082031 190.027344 L 206.589844 187.898438 C 207.375 187.421875 208.207031 187.039062 209.078125 186.75 C 209.953125 186.460938 210.847656 186.273438 211.765625 186.191406 C 212.683594 186.105469 213.597656 186.125 214.507812 186.25 C 215.421875 186.375 216.308594 186.597656 217.167969 186.925781 L 231.105469 192.214844 C 231.847656 192.496094 232.554688 192.847656 233.230469 193.269531 C 233.902344 193.6875 234.527344 194.171875 235.105469 194.714844 C 235.683594 195.257812 236.203125 195.851562 236.664062 196.5 C 237.121094 197.144531 237.515625 197.828125 237.839844 198.550781 C 238.167969 199.273438 238.417969 200.023438 238.59375 200.792969 C 238.773438 201.566406 238.875 202.347656 238.898438 203.140625 C 238.921875 203.933594 238.867188 204.71875 238.734375 205.5 C 238.601562 206.28125 238.394531 207.042969 238.113281 207.785156 C 237.949219 208.207031 237.765625 208.625 237.554688 209.027344 L 233.691406 216.5 C 233.378906 217.101562 233.019531 217.675781 232.609375 218.21875 C 232.199219 218.765625 231.746094 219.269531 231.25 219.734375 C 230.753906 220.203125 230.226562 220.625 229.65625 221.003906 C 229.089844 221.378906 228.496094 221.707031 227.875 221.984375 C 227.25 222.261719 226.609375 222.484375 225.949219 222.652344 C 225.289062 222.824219 224.621094 222.9375 223.941406 222.992188 C 223.261719 223.046875 222.582031 223.046875 221.90625 222.988281 C 221.226562 222.929688 220.554688 222.816406 219.898438 222.644531 C 198.003906 216.992188 145.832031 197.34375 141.628906 137.933594 C 141.542969 136.753906 141.632812 135.589844 141.890625 134.433594 C 142.152344 133.28125 142.570312 132.191406 143.152344 131.160156 C 143.734375 130.128906 144.449219 129.203125 145.304688 128.382812 C 146.15625 127.566406 147.109375 126.882812 148.164062 126.34375 L 155.273438 122.699219 C 155.980469 122.335938 156.714844 122.046875 157.476562 121.828125 C 158.242188 121.609375 159.019531 121.46875 159.808594 121.402344 C 160.601562 121.339844 161.390625 121.351562 162.179688 121.441406 C 162.96875 121.53125 163.742188 121.699219 164.5 121.941406 C 165.253906 122.183594 165.980469 122.496094 166.675781 122.878906 C 167.367188 123.265625 168.019531 123.714844 168.625 124.226562 C 169.230469 124.738281 169.78125 125.304688 170.273438 125.925781 C 170.769531 126.546875 171.195312 127.210938 171.558594 127.914062 Z M 171.558594 127.914062 " fill-opacity="1" fill-rule="nonzero"/><g clip-path="url(#ffaae84c79)"><path fill="#1ba553" d="M 190.191406 269.207031 C 190.191406 269.59375 190.152344 269.976562 190.078125 270.355469 C 190.003906 270.734375 189.890625 271.101562 189.742188 271.460938 C 189.59375 271.816406 189.414062 272.15625 189.199219 272.476562 C 188.980469 272.796875 188.738281 273.097656 188.464844 273.371094 C 188.191406 273.640625 187.890625 273.886719 187.570312 274.101562 C 187.25 274.316406 186.910156 274.496094 186.550781 274.644531 C 186.191406 274.792969 185.824219 274.90625 185.445312 274.980469 C 185.066406 275.054688 184.679688 275.09375 184.292969 275.09375 C 183.90625 275.09375 183.523438 275.054688 183.144531 274.980469 C 182.765625 274.90625 182.394531 274.792969 182.039062 274.644531 C 181.679688 274.496094 181.339844 274.316406 181.019531 274.101562 C 180.695312 273.886719 180.398438 273.640625 180.125 273.371094 C 179.851562 273.097656 179.605469 272.796875 179.390625 272.476562 C 179.175781 272.15625 178.996094 271.816406 178.847656 271.460938 C 178.699219 271.101562 178.585938 270.734375 178.511719 270.355469 C 178.433594 269.976562 178.398438 269.59375 178.398438 269.207031 C 178.398438 268.820312 178.433594 268.4375 178.511719 268.058594 C 178.585938 267.679688 178.699219 267.3125 178.847656 266.957031 C 178.996094 266.597656 179.175781 266.257812 179.390625 265.9375 C 179.605469 265.617188 179.851562 265.320312 180.125 265.046875 C 180.398438 264.773438 180.695312 264.527344 181.019531 264.316406 C 181.339844 264.101562 181.679688 263.917969 182.039062 263.769531 C 182.394531 263.621094 182.765625 263.511719 183.144531 263.4375 C 183.523438 263.359375 183.90625 263.324219 184.292969 263.324219 C 184.679688 263.324219 185.066406 263.359375 185.445312 263.4375 C 185.824219 263.511719 186.191406 263.621094 186.550781 263.769531 C 186.910156 263.917969 187.25 264.101562 187.570312 264.316406 C 187.890625 264.527344 188.191406 264.773438 188.464844 265.046875 C 188.738281 265.320312 188.980469 265.617188 189.199219 265.9375 C 189.414062 266.257812 189.59375 266.597656 189.742188 266.957031 C 189.890625 267.3125 190.003906 267.679688 190.078125 268.058594 C 190.152344 268.4375 190.191406 268.820312 190.191406 269.207031 Z M 190.191406 269.207031 " fill-opacity="1" fill-rule="nonzero"/></g><g clip-path="url(#bac7c04b07)"><path fill="#009b3a" d="M 221.652344 95.84375 C 221.652344 100.050781 218.257812 103.460938 214.074219 103.460938 L 161.023438 103.460938 C 156.839844 103.460938 153.445312 100.050781 153.445312 95.84375 L 153.445312 61.574219 C 153.445312 57.371094 156.839844 53.960938 161.023438 53.960938 L 214.074219 53.960938 C 218.257812 53.960938 221.652344 57.371094 221.652344 61.574219 Z M 221.652344 95.84375 " fill-opacity="1" fill-rule="nonzero"/></g><path fill="#fedf01" d="M 215.453125 78.710938 L 187.546875 99.886719 L 159.644531 78.710938 L 187.546875 57.53125 Z M 215.453125 78.710938 " fill-opacity="1" fill-rule="nonzero"/><path fill="#002776" d="M 199.738281 78.566406 C 199.738281 79.371094 199.660156 80.171875 199.503906 80.964844 C 199.347656 81.757812 199.113281 82.523438 198.808594 83.269531 C 198.5 84.015625 198.121094 84.726562 197.675781 85.394531 C 197.230469 86.066406 196.722656 86.6875 196.15625 87.257812 C 195.585938 87.832031 194.96875 88.339844 194.300781 88.789062 C 193.632812 89.238281 192.925781 89.617188 192.183594 89.925781 C 191.441406 90.234375 190.679688 90.464844 189.890625 90.625 C 189.101562 90.78125 188.304688 90.859375 187.503906 90.859375 C 186.699219 90.859375 185.902344 90.78125 185.117188 90.625 C 184.328125 90.464844 183.5625 90.234375 182.820312 89.925781 C 182.078125 89.617188 181.375 89.238281 180.707031 88.789062 C 180.039062 88.339844 179.417969 87.832031 178.851562 87.257812 C 178.285156 86.6875 177.777344 86.066406 177.328125 85.394531 C 176.882812 84.726562 176.507812 84.015625 176.199219 83.269531 C 175.890625 82.523438 175.660156 81.757812 175.503906 80.964844 C 175.347656 80.171875 175.269531 79.371094 175.269531 78.566406 C 175.269531 77.757812 175.347656 76.957031 175.503906 76.167969 C 175.660156 75.375 175.890625 74.605469 176.199219 73.859375 C 176.507812 73.113281 176.882812 72.40625 177.328125 71.734375 C 177.777344 71.0625 178.285156 70.441406 178.851562 69.871094 C 179.417969 69.300781 180.039062 68.789062 180.707031 68.34375 C 181.375 67.894531 182.078125 67.515625 182.820312 67.207031 C 183.5625 66.898438 184.328125 66.664062 185.117188 66.507812 C 185.902344 66.347656 186.699219 66.269531 187.503906 66.269531 C 188.304688 66.269531 189.101562 66.347656 189.890625 66.507812 C 190.679688 66.664062 191.441406 66.898438 192.183594 67.207031 C 192.925781 67.515625 193.632812 67.894531 194.300781 68.34375 C 194.96875 68.789062 195.585938 69.300781 196.15625 69.871094 C 196.722656 70.441406 197.230469 71.0625 197.675781 71.734375 C 198.121094 72.40625 198.5 73.113281 198.808594 73.859375 C 199.113281 74.605469 199.347656 75.375 199.503906 76.167969 C 199.660156 76.957031 199.738281 77.757812 199.738281 78.566406 Z M 199.738281 78.566406 " fill-opacity="1" fill-rule="nonzero"/><path fill="#cbe9d4" d="M 176.707031 72.785156 C 176.078125 73.964844 175.648438 75.265625 175.433594 76.636719 C 183 76.082031 193.273438 80.234375 197.683594 85.382812 C 198.445312 84.234375 199.007812 82.945312 199.355469 81.566406 C 193.914062 76.222656 184.355469 72.753906 176.707031 72.785156 Z M 176.707031 72.785156 " fill-opacity="1" fill-rule="nonzero"/><path fill="#88c9f9" d="M 176.179688 79.152344 L 178.074219 79.152344 L 178.074219 81.058594 L 176.179688 81.058594 Z M 178.074219 82.960938 L 179.96875 82.960938 L 179.96875 84.867188 L 178.074219 84.867188 Z M 178.074219 82.960938 " fill-opacity="1" fill-rule="nonzero"/><path fill="#55acee" d="M 181.863281 79.152344 L 183.757812 79.152344 L 183.757812 81.058594 L 181.863281 81.058594 Z M 185.652344 81.058594 L 187.546875 81.058594 L 187.546875 82.960938 L 185.652344 82.960938 Z M 193.234375 84.867188 L 195.128906 84.867188 L 195.128906 86.769531 L 193.234375 86.769531 Z M 187.546875 86.769531 L 189.441406 86.769531 L 189.441406 88.671875 L 187.546875 88.671875 Z M 193.234375 75.347656 L 195.128906 75.347656 L 195.128906 77.25 L 193.234375 77.25 Z M 193.234375 75.347656 " fill-opacity="1" fill-rule="nonzero"/><path fill="#3b88c3" d="M 189.441406 82.960938 L 191.335938 82.960938 L 191.335938 84.867188 L 189.441406 84.867188 Z M 189.441406 82.960938 " fill-opacity="1" fill-rule="nonzero"/></svg>